<svg width="201" height="36" viewBox="0 0 201 36" fill="none" xmlns="http://www.w3.org/2000/svg">
<g filter="url(#filter0_d_5_750)">
<path d="M8.472 23.16L8.256 18.672L16.296 10.2H20.616L13.368 18L11.208 20.304L8.472 23.16ZM4.992 27V10.2H8.856V27H4.992ZM16.488 27L10.512 19.68L13.056 16.92L21.024 27H16.488ZM22.5176 27V10.2H26.4056V27H22.5176ZM38.3126 27.288C36.9846 27.288 35.7526 27.072 34.6166 26.64C33.4966 26.208 32.5206 25.6 31.6886 24.816C30.8726 24.032 30.2326 23.112 29.7686 22.056C29.3206 21 29.0966 19.848 29.0966 18.6C29.0966 17.352 29.3206 16.2 29.7686 15.144C30.2326 14.088 30.8806 13.168 31.7126 12.384C32.5446 11.6 33.5206 10.992 34.6406 10.56C35.7606 10.128 36.9766 9.912 38.2886 9.912C39.6166 9.912 40.8326 10.128 41.9366 10.56C43.0566 10.992 44.0246 11.6 44.8406 12.384C45.6726 13.168 46.3206 14.088 46.7846 15.144C47.2486 16.184 47.4806 17.336 47.4806 18.6C47.4806 19.848 47.2486 21.008 46.7846 22.08C46.3206 23.136 45.6726 24.056 44.8406 24.84C44.0246 25.608 43.0566 26.208 41.9366 26.64C40.8326 27.072 39.6246 27.288 38.3126 27.288ZM38.2886 23.976C39.0406 23.976 39.7286 23.848 40.3526 23.592C40.9926 23.336 41.5526 22.968 42.0326 22.488C42.5126 22.008 42.8806 21.44 43.1366 20.784C43.4086 20.128 43.5446 19.4 43.5446 18.6C43.5446 17.8 43.4086 17.072 43.1366 16.416C42.8806 15.76 42.5126 15.192 42.0326 14.712C41.5686 14.232 41.0166 13.864 40.3766 13.608C39.7366 13.352 39.0406 13.224 38.2886 13.224C37.5366 13.224 36.8406 13.352 36.2006 13.608C35.5766 13.864 35.0246 14.232 34.5446 14.712C34.0646 15.192 33.6886 15.76 33.4166 16.416C33.1606 17.072 33.0326 17.8 33.0326 18.6C33.0326 19.384 33.1606 20.112 33.4166 20.784C33.6886 21.44 34.0566 22.008 34.5206 22.488C35.0006 22.968 35.5606 23.336 36.2006 23.592C36.8406 23.848 37.5366 23.976 38.2886 23.976ZM55.6826 27.288C54.3386 27.288 53.0506 27.112 51.8186 26.76C50.5866 26.392 49.5946 25.92 48.8426 25.344L50.1626 22.416C50.8826 22.928 51.7306 23.352 52.7066 23.688C53.6986 24.008 54.6986 24.168 55.7066 24.168C56.4746 24.168 57.0906 24.096 57.5546 23.952C58.0346 23.792 58.3866 23.576 58.6106 23.304C58.8346 23.032 58.9466 22.72 58.9466 22.368C58.9466 21.92 58.7706 21.568 58.4186 21.312C58.0666 21.04 57.6026 20.824 57.0266 20.664C56.4506 20.488 55.8106 20.328 55.1066 20.184C54.4186 20.024 53.7226 19.832 53.0186 19.608C52.3306 19.384 51.6986 19.096 51.1226 18.744C50.5466 18.392 50.0746 17.928 49.7066 17.352C49.3546 16.776 49.1786 16.04 49.1786 15.144C49.1786 14.184 49.4346 13.312 49.9466 12.528C50.4746 11.728 51.2586 11.096 52.2986 10.632C53.3546 10.152 54.6746 9.912 56.2586 9.912C57.3146 9.912 58.3546 10.04 59.3786 10.296C60.4026 10.536 61.3066 10.904 62.0906 11.4L60.8906 14.352C60.1066 13.904 59.3226 13.576 58.5386 13.368C57.7546 13.144 56.9866 13.032 56.2346 13.032C55.4826 13.032 54.8666 13.12 54.3866 13.296C53.9066 13.472 53.5626 13.704 53.3546 13.992C53.1466 14.264 53.0426 14.584 53.0426 14.952C53.0426 15.384 53.2186 15.736 53.5706 16.008C53.9226 16.264 54.3866 16.472 54.9626 16.632C55.5386 16.792 56.1706 16.952 56.8586 17.112C57.5626 17.272 58.2586 17.456 58.9466 17.664C59.6506 17.872 60.2906 18.152 60.8666 18.504C61.4426 18.856 61.9066 19.32 62.2586 19.896C62.6266 20.472 62.8106 21.2 62.8106 22.08C62.8106 23.024 62.5466 23.888 62.0186 24.672C61.4906 25.456 60.6986 26.088 59.6426 26.568C58.6026 27.048 57.2826 27.288 55.6826 27.288ZM71.7842 27V10.2H79.0562C80.5602 10.2 81.8562 10.448 82.9442 10.944C84.0322 11.424 84.8722 12.12 85.4642 13.032C86.0562 13.944 86.3522 15.032 86.3522 16.296C86.3522 17.544 86.0562 18.624 85.4642 19.536C84.8722 20.448 84.0322 21.152 82.9442 21.648C81.8562 22.128 80.5602 22.368 79.0562 22.368H73.9442L75.6722 20.616V27H71.7842ZM75.6722 21.048L73.9442 19.2H78.8402C80.0402 19.2 80.9362 18.944 81.5282 18.432C82.1202 17.92 82.4162 17.208 82.4162 16.296C82.4162 15.368 82.1202 14.648 81.5282 14.136C80.9362 13.624 80.0402 13.368 78.8402 13.368H73.9442L75.6722 11.52V21.048ZM92.4639 16.968H100.552V19.992H92.4639V16.968ZM92.7519 23.88H101.896V27H88.8879V10.2H101.584V13.32H92.7519V23.88ZM104.749 27V10.2H108.637V23.832H117.062V27H104.749ZM116.88 27L124.368 10.2H128.208L135.72 27H131.64L125.496 12.168H127.032L120.864 27H116.88ZM120.624 23.4L121.656 20.448H130.296L131.352 23.4H120.624ZM140.67 27.288C139.534 27.288 138.486 27.08 137.526 26.664C136.582 26.232 135.806 25.624 135.198 24.84L137.358 22.248C137.822 22.856 138.31 23.32 138.822 23.64C139.334 23.944 139.886 24.096 140.478 24.096C142.062 24.096 142.854 23.168 142.854 21.312V13.32H136.95V10.2H146.718V21.096C146.718 23.176 146.206 24.728 145.182 25.752C144.158 26.776 142.654 27.288 140.67 27.288ZM147.759 27L155.247 10.2H159.087L166.599 27H162.519L156.375 12.168H157.911L151.743 27H147.759ZM151.503 23.4L152.535 20.448H161.175L162.231 23.4H151.503ZM168.102 27V10.2H175.374C176.878 10.2 178.174 10.448 179.262 10.944C180.35 11.424 181.19 12.12 181.782 13.032C182.374 13.944 182.67 15.032 182.67 16.296C182.67 17.544 182.374 18.624 181.782 19.536C181.19 20.432 180.35 21.12 179.262 21.6C178.174 22.08 176.878 22.32 175.374 22.32H170.262L171.99 20.616V27H168.102ZM178.782 27L174.582 20.904H178.734L182.982 27H178.782ZM171.99 21.048L170.262 19.224H175.158C176.358 19.224 177.254 18.968 177.846 18.456C178.438 17.928 178.734 17.208 178.734 16.296C178.734 15.368 178.438 14.648 177.846 14.136C177.254 13.624 176.358 13.368 175.158 13.368H170.262L171.99 11.52V21.048Z" fill="black"/>
<circle cx="193" cy="23" r="4" fill="#048998"/>
</g>
<defs>
<filter id="filter0_d_5_750" x="0.991943" y="9.912" width="200.008" height="25.376" filterUnits="userSpaceOnUse" color-interpolation-filters="sRGB">
<feFlood flood-opacity="0" result="BackgroundImageFix"/>
<feColorMatrix in="SourceAlpha" type="matrix" values="0 0 0 0 0 0 0 0 0 0 0 0 0 0 0 0 0 0 127 0" result="hardAlpha"/>
<feOffset dy="4"/>
<feGaussianBlur stdDeviation="2"/>
<feComposite in2="hardAlpha" operator="out"/>
<feColorMatrix type="matrix" values="0 0 0 0 0 0 0 0 0 0 0 0 0 0 0 0 0 0 0.25 0"/>
<feBlend mode="normal" in2="BackgroundImageFix" result="effect1_dropShadow_5_750"/>
<feBlend mode="normal" in="SourceGraphic" in2="effect1_dropShadow_5_750" result="shape"/>
</filter>
</defs>
</svg>
