<svg xmlns="http://www.w3.org/2000/svg" xmlns:xlink="http://www.w3.org/1999/xlink" width="300" zoomAndPan="magnify" viewBox="0 0 224.87999 63.749997" height="85" preserveAspectRatio="xMidYMid meet" version="1.0"><defs><g/><clipPath id="id1"><path d="M 6.730469 6.585938 L 57.53125 6.585938 L 57.53125 57.386719 L 6.730469 57.386719 Z M 6.730469 6.585938 " clip-rule="nonzero"/></clipPath></defs><g clip-path="url(#id1)"><path fill="rgb(21.958923%, 71.369934%, 100%)" d="M 6.730469 43.777344 C 6.730469 44.671875 6.816406 45.558594 6.992188 46.433594 C 7.164062 47.308594 7.421875 48.160156 7.765625 48.984375 C 8.105469 49.8125 8.527344 50.59375 9.023438 51.339844 C 9.519531 52.082031 10.082031 52.769531 10.714844 53.398438 C 11.347656 54.03125 12.035156 54.597656 12.777344 55.09375 C 13.519531 55.589844 14.304688 56.007812 15.128906 56.351562 C 15.953125 56.691406 16.804688 56.949219 17.683594 57.125 C 18.558594 57.296875 19.445312 57.386719 20.335938 57.386719 L 43.921875 57.386719 C 44.816406 57.386719 45.703125 57.296875 46.578125 57.125 C 47.453125 56.949219 48.304688 56.691406 49.128906 56.351562 C 49.957031 56.007812 50.738281 55.589844 51.484375 55.09375 C 52.226562 54.597656 52.914062 54.03125 53.542969 53.398438 C 54.175781 52.769531 54.742188 52.082031 55.238281 51.339844 C 55.734375 50.59375 56.152344 49.8125 56.496094 48.984375 C 56.835938 48.160156 57.09375 47.308594 57.269531 46.433594 C 57.441406 45.558594 57.53125 44.671875 57.53125 43.777344 L 57.53125 20.191406 C 57.53125 19.300781 57.441406 18.414062 57.269531 17.539062 C 57.09375 16.660156 56.835938 15.8125 56.496094 14.984375 C 56.152344 14.160156 55.734375 13.375 55.238281 12.632812 C 54.742188 11.890625 54.175781 11.203125 53.542969 10.570312 C 52.914062 9.9375 52.226562 9.375 51.484375 8.878906 C 50.738281 8.382812 49.957031 7.960938 49.128906 7.621094 C 48.304688 7.277344 47.453125 7.019531 46.578125 6.847656 C 45.703125 6.671875 44.816406 6.585938 43.921875 6.585938 L 20.335938 6.585938 C 19.445312 6.585938 18.558594 6.671875 17.683594 6.847656 C 16.804688 7.019531 15.953125 7.277344 15.128906 7.621094 C 14.304688 7.960938 13.519531 8.382812 12.777344 8.878906 C 12.035156 9.375 11.347656 9.9375 10.714844 10.570312 C 10.082031 11.203125 9.519531 11.890625 9.023438 12.632812 C 8.527344 13.375 8.105469 14.160156 7.765625 14.984375 C 7.421875 15.8125 7.164062 16.660156 6.992188 17.539062 C 6.816406 18.414062 6.730469 19.300781 6.730469 20.191406 Z M 16.109375 28.847656 C 16.238281 28.191406 16.410156 27.542969 16.617188 26.910156 C 16.828125 26.273438 17.074219 25.652344 17.363281 25.050781 C 17.648438 24.445312 17.96875 23.859375 18.328125 23.292969 C 18.683594 22.726562 19.074219 22.1875 19.5 21.667969 C 19.921875 21.152344 20.375 20.664062 20.859375 20.203125 C 21.34375 19.738281 21.855469 19.308594 22.394531 18.910156 C 22.929688 18.511719 23.488281 18.148438 24.070312 17.816406 C 24.652344 17.488281 25.253906 17.195312 25.871094 16.9375 C 26.488281 16.683594 27.121094 16.464844 27.765625 16.285156 C 28.410156 16.109375 29.0625 15.96875 29.722656 15.871094 C 30.386719 15.773438 31.050781 15.714844 31.71875 15.699219 C 32.390625 15.679688 33.054688 15.707031 33.722656 15.769531 C 34.386719 15.835938 35.046875 15.941406 35.699219 16.089844 C 36.351562 16.234375 36.992188 16.421875 37.625 16.644531 C 38.253906 16.871094 38.867188 17.132812 39.464844 17.433594 C 40.0625 17.734375 40.640625 18.070312 41.195312 18.441406 C 41.75 18.8125 42.285156 19.21875 42.789062 19.65625 C 43.296875 20.09375 43.773438 20.558594 44.222656 21.054688 C 44.671875 21.550781 45.089844 22.070312 45.476562 22.617188 C 45.859375 23.164062 46.210938 23.734375 46.527344 24.324219 C 46.84375 24.914062 47.121094 25.519531 47.359375 26.144531 C 47.601562 26.769531 47.804688 27.40625 47.964844 28.054688 C 48.128906 28.703125 48.25 29.359375 48.332031 30.023438 C 48.414062 30.6875 48.457031 31.351562 48.457031 32.023438 C 48.457031 32.691406 48.414062 33.355469 48.332031 34.019531 C 48.25 34.683594 48.128906 35.339844 47.964844 35.988281 C 47.804688 36.640625 47.601562 37.277344 47.359375 37.898438 C 47.121094 38.523438 46.84375 39.128906 46.527344 39.71875 C 46.210938 40.3125 45.859375 40.878906 45.476562 41.425781 C 45.089844 41.972656 44.671875 42.492188 44.222656 42.988281 C 43.773438 43.484375 43.296875 43.953125 42.789062 44.386719 C 42.285156 44.824219 41.75 45.230469 41.195312 45.601562 C 40.640625 45.972656 40.0625 46.308594 39.464844 46.609375 C 38.867188 46.910156 38.253906 47.171875 37.625 47.398438 C 36.992188 47.621094 36.351562 47.808594 35.699219 47.953125 C 35.046875 48.101562 34.386719 48.207031 33.722656 48.273438 C 33.054688 48.335938 32.390625 48.363281 31.71875 48.34375 C 31.050781 48.328125 30.386719 48.269531 29.722656 48.171875 C 29.0625 48.074219 28.410156 47.9375 27.765625 47.757812 C 27.121094 47.578125 26.488281 47.359375 25.871094 47.105469 C 25.253906 46.847656 24.652344 46.554688 24.070312 46.226562 C 23.488281 45.894531 22.929688 45.53125 22.394531 45.132812 C 21.855469 44.734375 21.34375 44.304688 20.859375 43.84375 C 20.375 43.378906 19.921875 42.890625 19.5 42.375 C 19.074219 41.855469 18.683594 41.316406 18.328125 40.75 C 17.96875 40.183594 17.648438 39.597656 17.363281 38.996094 C 17.074219 38.390625 16.828125 37.769531 16.617188 37.132812 C 16.410156 36.5 16.238281 35.851562 16.109375 35.195312 C 16.078125 35.023438 16.085938 34.851562 16.132812 34.679688 C 16.175781 34.507812 16.257812 34.355469 16.371094 34.222656 C 16.484375 34.085938 16.621094 33.980469 16.78125 33.910156 C 16.945312 33.835938 17.113281 33.796875 17.289062 33.800781 L 26.289062 33.800781 C 26.398438 33.800781 26.492188 33.839844 26.570312 33.917969 C 26.648438 33.996094 26.6875 34.089844 26.6875 34.199219 L 26.6875 36.332031 C 26.6875 36.476562 26.714844 36.617188 26.769531 36.75 C 26.828125 36.886719 26.90625 37.003906 27.007812 37.105469 C 27.113281 37.210938 27.230469 37.289062 27.363281 37.34375 C 27.5 37.402344 27.640625 37.429688 27.785156 37.429688 L 36.476562 37.429688 C 36.621094 37.429688 36.761719 37.402344 36.894531 37.34375 C 37.03125 37.289062 37.148438 37.210938 37.25 37.105469 C 37.355469 37.003906 37.433594 36.886719 37.488281 36.75 C 37.546875 36.617188 37.574219 36.476562 37.574219 36.332031 L 37.574219 27.640625 C 37.574219 27.496094 37.546875 27.355469 37.488281 27.21875 C 37.433594 27.085938 37.355469 26.96875 37.25 26.863281 C 37.148438 26.761719 37.03125 26.683594 36.894531 26.625 C 36.761719 26.570312 36.621094 26.542969 36.476562 26.542969 L 27.785156 26.542969 C 27.640625 26.542969 27.5 26.570312 27.363281 26.625 C 27.230469 26.683594 27.113281 26.761719 27.007812 26.863281 C 26.90625 26.96875 26.828125 27.085938 26.769531 27.21875 C 26.714844 27.355469 26.6875 27.496094 26.6875 27.640625 L 26.6875 29.390625 C 26.6875 29.605469 26.609375 29.789062 26.457031 29.941406 C 26.304688 30.09375 26.121094 30.171875 25.90625 30.171875 L 17.1875 30.171875 C 17.023438 30.171875 16.867188 30.132812 16.71875 30.0625 C 16.566406 29.992188 16.441406 29.890625 16.335938 29.761719 C 16.230469 29.636719 16.160156 29.492188 16.121094 29.332031 C 16.082031 29.171875 16.078125 29.007812 16.109375 28.847656 Z M 16.109375 28.847656 " fill-opacity="1" fill-rule="nonzero"/></g><g fill="rgb(100%, 100%, 100%)" fill-opacity="1"><g transform="translate(68.449477, 40.062878)"><g><path d="M 11.363281 -12.941406 L 11.363281 -16.042969 L 1.710938 -16.042969 L 1.710938 0 L 11.363281 0 L 11.363281 -3.101562 L 5.242188 -3.101562 L 5.242188 -6.472656 L 10.480469 -6.472656 L 10.480469 -9.574219 L 5.242188 -9.574219 L 5.242188 -12.941406 Z M 11.363281 -12.941406 "/></g></g></g><g fill="rgb(100%, 100%, 100%)" fill-opacity="1"><g transform="translate(81.851339, 40.062878)"><g><path d="M 11.605469 0 L 16.3125 0 L 8.582031 -8.90625 L 15.507812 -16.042969 L 10.964844 -16.042969 L 5.722656 -10.375 L 5.109375 -10.375 L 5.109375 -16.042969 L 1.578125 -16.042969 L 1.578125 0 L 5.109375 0 L 5.109375 -7.328125 L 5.617188 -7.328125 Z M 11.605469 0 "/></g></g></g><g fill="rgb(100%, 100%, 100%)" fill-opacity="1"><g transform="translate(98.542127, 40.062878)"><g><path d="M 6.523438 0.214844 C 9.519531 0.214844 12.058594 -1.550781 12.058594 -4.546875 C 12.058594 -10.480469 4.679688 -9.011719 4.679688 -11.792969 C 4.679688 -12.703125 5.375 -13.128906 6.230469 -13.128906 C 7.140625 -13.128906 8.050781 -12.621094 8.851562 -11.738281 L 11.203125 -13.984375 C 10.027344 -15.347656 8.234375 -16.257812 6.257812 -16.257812 C 3.71875 -16.257812 1.125 -14.734375 1.125 -11.523438 C 1.125 -6.070312 8.53125 -7.378906 8.53125 -4.574219 C 8.53125 -3.691406 7.78125 -3.101562 6.550781 -3.101562 C 5.082031 -3.101562 3.929688 -3.929688 3.34375 -5.1875 L 0.429688 -3.371094 C 1.472656 -1.363281 3.71875 0.214844 6.523438 0.214844 Z M 6.523438 0.214844 "/></g></g></g><g fill="rgb(100%, 100%, 100%)" fill-opacity="1"><g transform="translate(112.157898, 40.062878)"><g><path d="M 11.605469 0 L 16.3125 0 L 8.582031 -8.90625 L 15.507812 -16.042969 L 10.964844 -16.042969 L 5.722656 -10.375 L 5.109375 -10.375 L 5.109375 -16.042969 L 1.578125 -16.042969 L 1.578125 0 L 5.109375 0 L 5.109375 -7.328125 L 5.617188 -7.328125 Z M 11.605469 0 "/></g></g></g><g fill="rgb(100%, 100%, 100%)" fill-opacity="1"><g transform="translate(128.848687, 40.062878)"><g><path d="M 8.15625 0.214844 C 11.953125 0.214844 14.839844 -2.113281 14.839844 -5.132812 L 14.839844 -16.042969 L 11.3125 -16.042969 L 11.3125 -5.800781 C 11.3125 -4.171875 9.949219 -2.914062 8.15625 -2.914062 C 6.390625 -2.914062 5.027344 -4.171875 5.027344 -5.800781 L 5.027344 -16.042969 L 1.496094 -16.042969 L 1.496094 -5.132812 C 1.496094 -2.113281 4.414062 0.214844 8.15625 0.214844 Z M 8.15625 0.214844 "/></g></g></g><g fill="rgb(100%, 100%, 100%)" fill-opacity="1"><g transform="translate(146.127733, 40.062878)"><g><path d="M 5.109375 -3.128906 L 5.109375 -16.042969 L 1.578125 -16.042969 L 1.578125 0 L 10.429688 0 L 10.429688 -3.128906 Z M 5.109375 -3.128906 "/></g></g></g><g fill="rgb(100%, 100%, 100%)" fill-opacity="1"><g transform="translate(157.550884, 40.062878)"><g/></g></g><g fill="rgb(100%, 100%, 100%)" fill-opacity="1"><g transform="translate(164.909668, 40.062878)"><g><path d="M 1.710938 0 L 5.242188 0 L 5.242188 -16.042969 L 1.710938 -16.042969 Z M 1.710938 0 "/></g></g></g><g fill="rgb(100%, 100%, 100%)" fill-opacity="1"><g transform="translate(172.776502, 40.062878)"><g><path d="M 11.472656 -16.042969 L -0.132812 -16.042969 L -0.132812 -12.914062 L 3.929688 -12.914062 L 3.929688 0 L 7.433594 0 L 7.433594 -12.914062 L 11.472656 -12.914062 Z M 11.472656 -16.042969 "/></g></g></g></svg>