<?xml version="1.0" standalone="no"?><svg xmlns="http://www.w3.org/2000/svg" viewBox="0 0 1440 320"><path fill="#f5f5f5" fill-opacity="1" d="M0,160L18.5,176C36.9,192,74,224,111,224C147.7,224,185,192,222,176C258.5,160,295,160,332,181.3C369.2,203,406,245,443,245.3C480,245,517,203,554,202.7C590.8,203,628,245,665,245.3C701.5,245,738,203,775,192C812.3,181,849,203,886,208C923.1,213,960,203,997,192C1033.8,181,1071,171,1108,181.3C1144.6,192,1182,224,1218,245.3C1255.4,267,1292,277,1329,256C1366.2,235,1403,181,1422,154.7L1440,128L1440,320L1421.5,320C1403.1,320,1366,320,1329,320C1292.3,320,1255,320,1218,320C1181.5,320,1145,320,1108,320C1070.8,320,1034,320,997,320C960,320,923,320,886,320C849.2,320,812,320,775,320C738.5,320,702,320,665,320C627.7,320,591,320,554,320C516.9,320,480,320,443,320C406.2,320,369,320,332,320C295.4,320,258,320,222,320C184.6,320,148,320,111,320C73.8,320,37,320,18,320L0,320Z"></path></svg>